<?xml version="1.0" standalone="no"?>
<!DOCTYPE svg PUBLIC "-//W3C//DTD SVG 20010904//EN"
 "http://www.w3.org/TR/2001/REC-SVG-20010904/DTD/svg10.dtd">
<svg version="1.0" xmlns="http://www.w3.org/2000/svg"
 width="200.000000pt" height="200.000000pt" viewBox="0 0 200.000000 200.000000"
 preserveAspectRatio="xMidYMid meet">

<g transform="translate(0.000000,200.000000) scale(0.100000,-0.100000)"
fill="#000000" stroke="none">
<path d="M875 1989 c-272 -35 -488 -174 -593 -384 -40 -80 -54 -136 -54 -220
0 -88 22 -145 73 -189 55 -46 98 -56 251 -56 l135 0 41 84 c45 90 112 162 199
213 54 31 162 63 215 63 l38 0 0 -90 0 -90 178 0 c161 0 181 -2 195 -18 23
-25 21 -78 -3 -102 -18 -18 -33 -20 -195 -20 l-175 0 0 -180 0 -180 175 0
c162 0 177 -2 195 -20 26 -26 26 -81 2 -103 -16 -15 -45 -17 -195 -17 l-177 0
0 -90 0 -90 -38 0 c-53 0 -161 32 -215 63 -87 51 -154 123 -198 212 l-41 82
-186 6 c-157 4 -197 8 -252 27 -98 33 -171 90 -218 169 l-21 34 -7 -38 c-9
-50 11 -232 36 -322 76 -274 287 -521 547 -639 262 -120 564 -120 826 0 103
47 188 106 279 194 406 393 406 1031 0 1424 -167 162 -350 249 -582 278 -96
11 -136 11 -235 -1z"/>
</g>
</svg>
